<?xml version="1.0" encoding="UTF-8"?>
<svg width="99px" height="20px" viewBox="0 0 99 20" version="1.1" xmlns="http://www.w3.org/2000/svg" xmlns:xlink="http://www.w3.org/1999/xlink">
    <title>Logo</title>
    <defs></defs>
    <g id="Page-1" stroke="none" stroke-width="1" fill="none" fill-rule="evenodd">
        <g id="Sign-in" transform="translate(-661.000000, -131.000000)">
            <g id="Logo" transform="translate(661.000000, 131.000000)">
                <path d="M7,1 L23,1 C24.1045695,1 25,1.8954305 25,3 C25,4.1045695 24.1045695,5 23,5 L7,5 C5.8954305,5 5,4.1045695 5,3 C5,1.8954305 5.8954305,1 7,1 Z M12,8 L28,8 C29.1045695,8 30,8.8954305 30,10 C30,11.1045695 29.1045695,12 28,12 L12,12 C10.8954305,12 10,11.1045695 10,10 C10,8.8954305 10.8954305,8 12,8 Z M2,15 L18,15 C19.1045695,15 20,15.8954305 20,17 C20,18.1045695 19.1045695,19 18,19 L2,19 C0.8954305,19 1.3527075e-16,18.1045695 0,17 C-1.3527075e-16,15.8954305 0.8954305,15 2,15 Z" id="Combined-Shape" fill="#12C1D5"></path>
                <path d="M38,17.8074866 L38,2.03208556 C38,0.909090909 38.9144621,0 40.0440917,0 C41.1737213,0 42.0881834,0.909090909 42.0881834,2.03208556 L42.0881834,17.8074866 C42.0881834,18.9304813 41.1737213,19.8395722 40.0440917,19.8395722 C38.9144621,19.8395722 38,18.9304813 38,17.8074866 Z M57.7685185,18.2620321 C56.5044092,19.3315508 54.8637566,20 52.765873,20 C48.4356261,20 45.2350088,16.9786096 45.2350088,12.5935829 L45.2350088,12.540107 C45.2350088,8.44919786 48.1666667,5.0802139 52.3624339,5.0802139 C57.1768078,5.0802139 59.3015873,9.01069519 59.3015873,11.9786096 C59.3015873,13.1550802 58.4678131,13.9304813 57.3919753,13.9304813 L49.2962963,13.9304813 C49.6997354,15.7754011 50.9907407,16.7379679 52.8196649,16.7379679 C53.9492945,16.7379679 54.8906526,16.3903743 55.7244268,15.7754011 C56.0202822,15.5614973 56.2892416,15.4545455 56.7195767,15.4545455 C57.6340388,15.4545455 58.3064374,16.1497326 58.3064374,17.0588235 C58.3064374,17.5935829 58.0643739,17.9946524 57.7685185,18.2620321 Z M49.2425044,11.3903743 L55.4016755,11.3903743 C55.159612,9.57219251 54.0837743,8.34224599 52.3624339,8.34224599 C50.6679894,8.34224599 49.5652557,9.54545455 49.2425044,11.3903743 Z M70.9206349,18.2085561 C70.4634039,19.2513369 69.7103175,19.973262 68.6075838,19.973262 L68.3924162,19.973262 C67.2896825,19.973262 66.5365961,19.2780749 66.0793651,18.2085561 L61.6684303,8.07486631 C61.5608466,7.80748663 61.4532628,7.45989305 61.4532628,7.0855615 C61.4532628,6.12299465 62.3408289,5.18716578 63.4435626,5.18716578 C64.5462963,5.18716578 65.1380071,5.80213904 65.4338624,6.63101604 L68.5268959,14.9465241 L71.6737213,6.57754011 C71.9426808,5.88235294 72.5074956,5.18716578 73.5833333,5.18716578 C74.6591711,5.18716578 75.5467372,6.01604278 75.5467372,7.11229947 C75.5467372,7.45989305 75.4122575,7.88770053 75.3315697,8.07486631 L70.9206349,18.2085561 Z M90.0705467,18.2620321 C88.8064374,19.3315508 87.1657848,20 85.0679012,20 C80.7376543,20 77.537037,16.9786096 77.537037,12.5935829 L77.537037,12.540107 C77.537037,8.44919786 80.4686949,5.0802139 84.6644621,5.0802139 C89.478836,5.0802139 91.6036155,9.01069519 91.6036155,11.9786096 C91.6036155,13.1550802 90.7698413,13.9304813 89.6940035,13.9304813 L81.5983245,13.9304813 C82.0017637,15.7754011 83.292769,16.7379679 85.1216931,16.7379679 C86.2513228,16.7379679 87.1926808,16.3903743 88.026455,15.7754011 C88.3223104,15.5614973 88.5912698,15.4545455 89.0216049,15.4545455 C89.936067,15.4545455 90.6084656,16.1497326 90.6084656,17.0588235 C90.6084656,17.5935829 90.3664021,17.9946524 90.0705467,18.2620321 Z M81.5445326,11.3903743 L87.7037037,11.3903743 C87.4616402,9.57219251 86.3858025,8.34224599 84.6644621,8.34224599 C82.9700176,8.34224599 81.867284,9.54545455 81.5445326,11.3903743 Z M94.9118166,17.8074866 L94.9118166,2.03208556 C94.9118166,0.909090909 95.8262787,0 96.9559083,0 C98.0855379,0 99,0.909090909 99,2.03208556 L99,17.8074866 C99,18.9304813 98.0855379,19.8395722 96.9559083,19.8395722 C95.8262787,19.8395722 94.9118166,18.9304813 94.9118166,17.8074866 Z" id="level" fill="#22384C"></path>
            </g>
        </g>
    </g>
</svg>
