<?xml version="1.0" encoding="UTF-8"?>
<svg width="32px" height="32px" viewBox="0 0 32 32" version="1.1" xmlns="http://www.w3.org/2000/svg" xmlns:xlink="http://www.w3.org/1999/xlink">
    <!-- Generator: Sketch 50.2 (55047) - http://www.bohemiancoding.com/sketch -->
    <title>Group</title>
    <desc>Created with Sketch.</desc>
    <defs></defs>
    <g id="Page-1" stroke="none" stroke-width="1" fill="none" fill-rule="evenodd">
        <g id="32">
            <g id="Group">
                <rect id="Rectangle-2" fill="#12C1D5" x="0" y="0" width="32" height="32" rx="3"></rect>
                <path d="M11.5,10 L22.5,10 C23.3284271,10 24,10.6715729 24,11.5 C24,12.3284271 23.3284271,13 22.5,13 L11.5,13 C10.6715729,13 10,12.3284271 10,11.5 C10,10.6715729 10.6715729,10 11.5,10 Z M14.5,15 L25.5,15 C26.3284271,15 27,15.6715729 27,16.5 C27,17.3284271 26.3284271,18 25.5,18 L14.5,18 C13.6715729,18 13,17.3284271 13,16.5 C13,15.6715729 13.6715729,15 14.5,15 Z M7.5,20 L18.5,20 C19.3284271,20 20,20.6715729 20,21.5 C20,22.3284271 19.3284271,23 18.5,23 L7.5,23 C6.67157288,23 6,22.3284271 6,21.5 C6,20.6715729 6.67157288,20 7.5,20 Z" id="Combined-Shape" fill="#FFFFFF"></path>
            </g>
        </g>
    </g>
</svg>